<?xml version="1.0" standalone="no"?>
<!DOCTYPE svg PUBLIC "-//W3C//DTD SVG 20010904//EN"
 "http://www.w3.org/TR/2001/REC-SVG-20010904/DTD/svg10.dtd">
<svg version="1.0" xmlns="http://www.w3.org/2000/svg"
 width="1204.000000pt" height="1204.000000pt" viewBox="0 0 1204.000000 1204.000000"
 preserveAspectRatio="xMidYMid meet">
<metadata>
Created by potrace 1.14, written by Peter Selinger 2001-2017
</metadata>
<g transform="translate(0.000000,1204.000000) scale(0.100000,-0.100000)"
fill="#000000" stroke="none">
<path d="M5936 9299 c-61 -29 -77 -49 -214 -253 -70 -105 -129 -193 -132 -196
-15 -15 -50 -71 -50 -80 0 -5 -3 -10 -8 -10 -4 0 -12 -9 -17 -19 -19 -38 -188
-286 -196 -289 -5 -2 -9 -8 -9 -14 0 -6 -16 -32 -35 -58 -19 -26 -35 -52 -35
-58 0 -6 -4 -12 -8 -14 -5 -1 -35 -43 -68 -93 -178 -267 -248 -371 -254 -375
-4 -3 -9 -10 -11 -15 -2 -6 -89 -137 -194 -293 -104 -155 -194 -291 -200 -302
-5 -11 -13 -20 -17 -20 -5 0 -8 -6 -8 -14 0 -8 -3 -16 -7 -18 -11 -4 -93 -127
-93 -137 0 -5 -4 -11 -8 -13 -4 -1 -35 -43 -67 -93 -33 -49 -63 -91 -67 -93
-5 -2 -8 -7 -8 -12 0 -5 -35 -60 -77 -123 -43 -63 -82 -121 -88 -129 -5 -8
-29 -43 -51 -78 -39 -59 -56 -84 -79 -116 -8 -11 -14 -11 -32 -1 -13 6 -62 33
-110 58 -49 25 -137 72 -198 104 -60 32 -146 77 -190 100 -44 23 -96 51 -115
62 -19 11 -91 48 -160 84 -69 35 -127 66 -130 69 -3 3 -34 20 -70 38 -36 17
-108 55 -160 83 -52 28 -153 81 -225 119 -71 37 -152 80 -180 95 -27 15 -99
53 -160 85 -60 31 -144 75 -185 97 -41 22 -122 65 -180 95 -133 71 -242 128
-350 186 -47 25 -123 65 -170 90 -161 84 -315 166 -395 209 -44 23 -111 59
-150 79 -38 19 -101 52 -140 73 -380 203 -377 201 -430 208 -52 6 -113 -22
-145 -67 -12 -16 -18 -30 -14 -30 5 0 3 -5 -4 -12 -22 -22 -13 -82 29 -188 22
-58 45 -113 51 -124 5 -10 11 -26 13 -36 2 -10 13 -38 24 -64 12 -25 24 -60
28 -76 3 -17 9 -30 14 -30 5 0 9 -5 9 -11 0 -9 87 -239 130 -344 4 -11 18 -45
30 -75 11 -30 25 -64 30 -75 5 -11 36 -92 70 -180 34 -88 70 -178 79 -200 10
-22 22 -51 26 -65 4 -14 13 -38 20 -55 34 -82 175 -443 175 -450 0 -3 9 -24
19 -48 10 -23 27 -62 36 -87 9 -25 22 -56 28 -70 6 -14 11 -27 11 -30 1 -4 31
-80 91 -235 5 -11 9 -22 10 -25 1 -3 6 -16 12 -30 6 -14 39 -97 73 -185 34
-88 71 -179 81 -202 10 -24 19 -49 19 -57 0 -8 4 -18 10 -21 5 -3 10 -13 10
-20 0 -8 11 -39 25 -69 14 -30 25 -57 25 -60 0 -3 30 -81 66 -173 36 -92 98
-249 136 -348 39 -99 79 -199 89 -222 10 -24 19 -47 19 -53 0 -5 11 -33 24
-62 13 -29 53 -132 90 -228 38 -96 76 -194 87 -217 10 -24 19 -47 19 -53 0 -6
9 -29 19 -53 11 -23 30 -71 44 -107 114 -295 130 -325 212 -406 79 -77 188
-133 330 -169 39 -10 56 -13 140 -20 105 -8 155 -14 203 -20 24 -3 71 -8 105
-11 34 -2 76 -6 92 -8 17 -3 66 -8 110 -11 44 -4 96 -9 115 -11 19 -2 69 -6
110 -9 131 -11 165 -14 165 -15 0 -1 34 -3 75 -6 41 -2 98 -6 125 -9 28 -2 91
-6 142 -9 163 -11 225 -16 234 -22 5 -3 9 0 9 6 0 7 6 8 18 2 9 -5 55 -10 102
-12 47 -1 108 -4 135 -6 28 -2 100 -6 160 -8 61 -3 164 -8 230 -11 162 -8 509
-20 750 -26 6 0 26 0 45 0 69 1 85 1 105 0 11 -1 261 -1 555 0 294 0 544 1
555 0 26 0 12 -1 225 5 211 6 430 14 605 22 66 3 158 7 205 9 81 4 193 10 345
20 39 2 115 7 170 10 55 3 120 8 145 10 25 2 88 7 140 10 52 3 111 8 130 10
19 2 73 7 120 11 146 11 191 15 340 28 115 10 174 16 215 21 22 3 72 8 110 11
39 3 81 7 95 10 14 2 59 7 100 9 122 8 180 19 240 47 25 12 47 22 50 22 11 2
85 51 88 58 2 4 8 8 13 8 16 0 79 62 126 125 54 71 71 107 158 330 36 94 71
184 78 200 6 17 12 32 13 35 0 3 5 16 11 30 6 14 23 57 38 95 15 39 33 83 40
100 8 16 11 33 9 37 -3 4 0 8 5 8 6 0 11 8 11 18 0 10 4 22 8 28 4 5 16 34 27
64 10 30 25 66 32 80 7 14 13 28 13 32 0 6 88 234 125 323 4 11 9 25 10 30 2
6 21 55 43 110 38 96 53 134 57 145 2 6 23 59 32 80 3 8 7 20 9 25 2 6 34 89
72 185 138 351 233 595 235 605 1 6 4 12 7 15 3 3 11 23 19 45 8 22 21 56 29
75 9 19 17 44 19 54 2 11 7 24 11 30 7 9 44 101 47 116 1 3 9 22 18 44 9 21
17 44 17 50 0 7 4 16 8 22 5 5 25 54 46 109 21 55 42 109 46 120 5 11 26 63
46 115 20 52 41 106 47 120 5 14 11 30 13 35 1 6 18 50 38 100 20 49 36 96 36
102 0 7 4 13 8 13 4 0 14 21 21 48 8 26 18 54 23 62 4 8 29 69 53 135 25 66
53 136 62 155 10 19 18 41 19 47 4 23 38 108 52 131 8 12 12 22 9 22 -4 0 3
21 14 48 11 26 52 128 91 227 38 99 75 191 81 205 23 56 30 125 17 166 -19 57
-94 110 -150 105 -30 -3 -93 -21 -100 -30 -3 -3 -39 -23 -80 -44 -41 -20 -113
-58 -160 -83 -144 -77 -350 -185 -455 -238 -55 -28 -102 -54 -105 -57 -8 -10
-174 -94 -182 -92 -3 1 -12 -4 -18 -12 -7 -8 -16 -15 -21 -15 -5 0 -27 -11
-49 -25 -22 -14 -40 -22 -40 -19 0 4 -7 1 -15 -6 -8 -7 -38 -24 -67 -40 -29
-15 -107 -56 -173 -90 -66 -35 -151 -80 -190 -99 -38 -20 -72 -38 -75 -41 -3
-3 -32 -19 -65 -35 -33 -16 -72 -38 -87 -48 -16 -10 -28 -15 -28 -10 0 4 -4 4
-8 -2 -4 -5 -36 -25 -72 -43 -36 -19 -96 -50 -135 -70 -38 -20 -72 -39 -75
-43 -3 -3 -16 -10 -30 -14 -14 -4 -27 -11 -30 -14 -3 -4 -32 -20 -65 -37 -59
-29 -235 -122 -365 -192 -61 -32 -100 -53 -360 -190 -58 -30 -163 -86 -233
-124 -71 -37 -131 -68 -133 -68 -2 0 -22 -11 -44 -25 -22 -14 -40 -22 -40 -18
0 5 -4 3 -8 -2 -4 -6 -38 -26 -75 -44 -37 -19 -70 -38 -73 -43 -3 -5 -10 -6
-15 -3 -5 4 -9 3 -9 -2 0 -7 -52 -36 -55 -30 -1 1 -23 33 -51 72 -27 38 -53
78 -59 87 -13 22 -151 229 -162 243 -4 6 -131 195 -282 420 -151 226 -303 452
-338 503 -35 51 -63 97 -63 102 0 6 -4 10 -8 10 -4 0 -21 22 -37 50 -17 27
-33 50 -37 50 -5 0 -8 6 -8 13 0 7 -13 28 -30 47 -16 19 -29 39 -30 43 0 10
-43 71 -52 75 -5 2 -8 8 -8 13 0 11 -42 72 -52 77 -5 2 -8 10 -8 18 0 8 -4 14
-8 14 -5 0 -21 22 -35 49 -15 27 -34 54 -42 61 -8 7 -15 19 -15 26 0 8 -4 14
-10 14 -5 0 -10 6 -10 14 0 8 -3 16 -7 18 -10 4 -53 65 -53 73 0 4 -6 12 -12
20 -7 7 -125 182 -263 388 -287 431 -293 437 -414 443 -50 2 -76 -2 -105 -17z"/>
</g>
</svg>
